<svg width="122" height="112" viewBox="0 0 122 112" fill="none" xmlns="http://www.w3.org/2000/svg">
<path fill-rule="evenodd" clip-rule="evenodd" d="M3.58789 44.8689V51.8576H27.008C29.7302 51.8576 33.2081 49.6604 33.2081 46.0257C33.2081 44.5639 33.8486 43.6103 31.8802 41.6767L28.8846 38.5785C27.1681 37.1807 29.0897 37.1807 30.5315 37.1807H40.4197V51.8576H48.2616V37.1807H58.8308V30.8953H24.606C20.442 30.8953 18.4059 34.3852 18.5205 36.2023C18.6357 38.0194 19.0186 40.3055 22.4788 43.0518C25.6352 45.5561 20.9161 44.8689 20.442 44.8689H3.58789ZM76.171 30.8953H63.5201L56.4282 51.8582H64.3208L65.6012 48.9229H73.928L75.1641 51.8582H82.8952L76.171 30.8953ZM67.3633 43.8905L70.0855 36.2023L72.6482 43.8905H67.3633ZM107.877 44.8689C104.835 44.8689 104.835 43.8905 104.835 43.8905C107.442 43.8905 109.753 40.5751 109.753 37.1807C109.753 33.7863 105.956 30.8953 102.912 30.8953H85.8921V51.8582H94.5404V44.8694C94.5404 44.8694 98.2228 48.6433 100.144 50.1809C102.067 51.7184 102.226 51.8582 104.834 51.8582H118.41V44.8694C118.411 44.8689 110.92 44.8689 107.877 44.8689ZM100.03 39.9768H94.5417V36.2023H100.03C102.547 36.2023 102.982 39.9768 100.03 39.9768ZM3.58789 54.5133H12.4355L14.6774 61.5032L16.759 54.5133H26.0472L28.4492 61.5032L30.8517 54.5133H38.538L31.4916 75.4812H24.4459L21.3585 65.5561L17.88 75.4812H10.6741L3.58789 54.5133ZM56.696 54.6343H44.0451L36.9538 75.5967H44.8457L46.1267 72.662H54.4541L55.6902 75.5967H63.422L56.696 54.6343ZM47.8888 67.629L50.611 59.9408L53.1731 67.629H47.8888ZM108.037 60.8043C106.597 60.8043 105.027 60.9513 106.744 62.3485L109.74 65.4473C111.708 67.3809 111.676 68.187 111.676 69.6499C111.676 73.284 107.557 75.4812 104.835 75.4812L85.913 75.5923C83.306 75.5923 83.1465 75.453 81.2243 73.9155C79.3034 72.378 75.6198 68.6035 75.6198 68.6035V75.5923H66.9727V54.6299H83.9927C87.0352 54.6299 90.834 57.5215 90.834 60.9154C90.834 64.3103 88.5226 67.6251 85.9143 67.6251C85.9143 67.6251 87.0611 68.6317 88.9827 68.6317C90.9049 68.6317 98.3038 68.6383 98.3038 68.6383C98.7772 68.6383 103.496 69.3256 100.34 66.8213C96.8797 64.0749 96.4968 61.7899 96.3816 59.9728C96.2664 58.1558 98.0664 54.5139 102.229 54.5139H118.412V60.8049L108.037 60.8043ZM81.1091 63.7108H75.6191V59.9364H81.1091C83.6263 59.9364 84.0611 63.7108 81.1091 63.7108Z" fill="white"/>
</svg>
